<svg width="128" height="128" viewBox="0 0 128 128" fill="none" xmlns="http://www.w3.org/2000/svg">
<rect width="128" height="128" fill="#E5E5E5"/>
<rect width="128" height="128" fill="#252129"/>
<path d="M57.6798 95.8V86.92C34.3198 87 34.2398 61.72 34.2398 61.4C34.2398 61.08 34.3198 35.88 57.6798 35.88V27C23.8398 27 23.7598 61.4 23.7598 61.4C23.7598 61.4 23.8398 95.8 57.6798 95.8Z" fill="#A46CFF"/>
<path d="M70.0129 95.8C103.853 95.8 103.933 61.4 103.933 61.4C103.933 61.4 103.853 27 70.0129 27V35.88C93.3729 35.88 93.4529 61.08 93.4529 61.4C93.4529 61.72 93.3729 87 70.0129 86.92V95.8Z" fill="#A46CFF"/>
</svg>
