<?xml version="1.0" standalone="no"?>
<!DOCTYPE svg PUBLIC "-//W3C//DTD SVG 20010904//EN"
 "http://www.w3.org/TR/2001/REC-SVG-20010904/DTD/svg10.dtd">
<svg version="1.0" xmlns="http://www.w3.org/2000/svg"
 width="700.000000pt" height="700.000000pt" viewBox="0 0 700.000000 700.000000"
 preserveAspectRatio="xMidYMid meet">
<metadata>
Created by potrace 1.14, written by Peter Selinger 2001-2017
</metadata>
<g transform="translate(0.000000,700.000000) scale(0.100000,-0.100000)"
fill="#000000" stroke="none">
<path d="M0 3500 l0 -3500 3500 0 3500 0 0 3500 0 3500 -3500 0 -3500 0 0
-3500z m3150 1780 l0 -240 -62 0 c-87 0 -236 -24 -341 -55 -479 -139 -791
-569 -868 -1195 -39 -319 70 -760 258 -1043 56 -85 175 -212 256 -274 168
-130 395 -208 665 -228 l92 -7 0 -234 0 -234 -93 0 c-249 0 -555 70 -777 178
-226 110 -448 298 -592 502 -82 115 -205 358 -253 499 -96 282 -144 585 -125
796 44 500 231 954 516 1254 228 240 472 380 804 460 63 16 162 34 220 40 58
6 119 13 135 15 17 1 60 4 98 5 l67 1 0 -240z m895 230 c647 -59 1121 -371
1392 -915 195 -390 278 -851 219 -1208 -139 -845 -596 -1394 -1299 -1562 -134
-32 -315 -55 -433 -55 l-94 0 0 234 0 234 93 7 c335 24 587 131 788 336 257
261 413 705 396 1123 -19 454 -222 886 -517 1106 -189 140 -463 230 -699 230
l-61 0 0 240 0 240 53 0 c28 0 102 -5 162 -10z"/>
</g>
</svg>
